<svg width="50" height="60" viewBox="0 0 50 60" fill="none" xmlns="http://www.w3.org/2000/svg">
<g id="send-03">
<path id="Icon" d="M21.8759 30.0001H10.4176M10.2412 30.7288L5.37677 48.1656C4.99462 49.5354 4.80354 50.2204 4.94067 50.6421C5.05975 51.0084 5.31551 51.2861 5.63109 51.3918C5.9945 51.5135 6.54339 51.2171 7.64117 50.6243L42.4567 31.8239C43.5282 31.2453 44.064 30.956 44.2296 30.5541C44.3735 30.2049 44.3735 29.7952 44.2296 29.4461C44.064 29.0442 43.5282 28.7549 42.4567 28.1763L7.62903 9.3694C6.53456 8.77839 5.98733 8.48288 5.62428 8.6041C5.30899 8.70938 5.05326 8.98634 4.93377 9.35195C4.79617 9.77293 4.98521 10.4564 5.36328 11.8233L10.2425 29.4639C10.3075 29.6987 10.3399 29.8161 10.3528 29.9361C10.3641 30.0426 10.364 30.1505 10.3524 30.257C10.3393 30.377 10.3066 30.4943 10.2412 30.7288Z" stroke="black" stroke-width="2" stroke-linecap="round" stroke-linejoin="round"/>
</g>
</svg>
